# xmcd
#
# Track frame offsets: 
#        150
#        32085
#        52864
#        73289
#        89898
#        113436
#        133081
#        151426
#        166957
#        178482
#        194784
#        215359
#        238813
#
# Disc length: 3413 seconds
#
# Revision: 2
# Processed by: cddbd v1.5.2PL0 Copyright (c) Steve Scherf et al.
# Submitted via: ExactAudioCopy v0.99pb4
#
DISCID=c60d530d
DTITLE=Various Artist - 30 Years North Sea Jazz Festival CD 06
DYEAR=2005
DGENRE=Jazz
TTITLE0=Toots Thielemans and Kenny Werner - Dolphin Dance
TTITLE1=Till Bronner - Clax's Theme
TTITLE2=Jimmy Dludlu - Afrocentric
TTITLE3=Trio Toykeat - Happy Hour
TTITLE4=Beady Belle - Ghost
TTITLE5=Silje Nergaard - Japanese Blues
TTITLE6=Richard Bona - Kalabancore
TTITLE7=Lizz Wright - Salt
TTITLE8=Al Jarreau - Route 66
TTITLE9=Jamie Cullum - Wind Cries Mary
TTITLE10=Laura Fygi - The Nearness Of You
TTITLE11=Diana Schuur - Speak Low
TTITLE12=Jorge Ben Jor/O Rei e Rosa Cruz
EXTD=YEAR: 2005
EXTT0=
EXTT1=
EXTT2=
EXTT3=
EXTT4=
EXTT5=
EXTT6=
EXTT7=
EXTT8=
EXTT9=
EXTT10=
EXTT11=
EXTT12=
PLAYORDER=
